<?xml version="1.0" encoding="UTF-8"?>
<svg id="uuid-ccf60bd3-2897-447f-8670-8e4c644590f9" data-name="Layer 1" xmlns="http://www.w3.org/2000/svg" viewBox="0 0 313.4 45.94">
  <defs>
    <style>
      .uuid-39b18235-7533-4b14-ba27-9032fb620680 {
        fill: #252523;
      }
    </style>
  </defs>
  <g>
    <path class="uuid-39b18235-7533-4b14-ba27-9032fb620680" d="M27.14.57l.48.47.11,26.17c.02.44-.14.88-.58,1.02l-26.21.07-.94-.45v-11.97l.95-.44,11.21.04c.2.06.45.14.52.36.36,1.08-.59,4.67.76,5.23.35.14,5.16.16,5.77.08.5-.07.88-.46.95-.95.24-1.83-.14-4.32-.08-6.21-.83-1.4-4.79.28-5.15-1.27l.08-11.68.48-.47h11.67Z"/>
    <path class="uuid-39b18235-7533-4b14-ba27-9032fb620680" d="M26.56,43.18h-10.51c-.63-.33-1.05-.65-1.15-1.4.24-3.13-.36-6.85-.01-9.91.13-1.14.75-1.46,1.82-1.54,2.39-.17,7.18-.26,9.49,0,.91.1,1.45.6,1.54,1.53.28,3.1-.23,6.63,0,9.78-.09.83-.45,1.17-1.17,1.53Z"/>
    <path class="uuid-39b18235-7533-4b14-ba27-9032fb620680" d="M11.67.57c.47.36,1.02.52,1.02,1.24-.29,3.27.38,7.18,0,10.37-.11.91-.7,1.16-1.53,1.24-2.21.21-7.63.26-9.79,0-.75-.09-1.02-.43-1.38-1.02V.57h11.67Z"/>
    <path class="uuid-39b18235-7533-4b14-ba27-9032fb620680" d="M11.67,43.18H0v-11.82c.37-.6.63-.94,1.38-1.02,2.16-.26,7.57-.21,9.79,0,.83.08,1.42.34,1.53,1.24.38,3.19-.29,7.1,0,10.37,0,.72-.56.88-1.02,1.24Z"/>
    <path class="uuid-39b18235-7533-4b14-ba27-9032fb620680" d="M41.45,43.18h-10.51c-.47-.36-1.02-.52-1.02-1.24.23-3.3-.3-6.98,0-10.23.08-.86.54-1.28,1.39-1.38,3.13-.38,7.1.23,10.3.07.59.24.94.48,1.02,1.17.38,3.24-.28,7.19-.01,10.5-.12.74-.62.78-1.16,1.1Z"/>
    <path class="uuid-39b18235-7533-4b14-ba27-9032fb620680" d="M41.45.57c.64.35,1.07.39,1.17,1.24-.23,3.3.3,6.98,0,10.23-.08.86-.54,1.28-1.39,1.38-3.13.38-7.1-.23-10.3-.07-.59-.24-.94-.48-1.02-1.17-.38-3.24.28-7.19.01-10.5.11-.68.56-.73,1.01-1.1h10.51Z"/>
    <path class="uuid-39b18235-7533-4b14-ba27-9032fb620680" d="M31.04,15.48c3.19.22,7.08-.41,10.19-.04.66.08,1.37.5,1.39,1.24-.23,3.29.3,6.98,0,10.23-.08.85-.52,1.28-1.39,1.38-3.12.38-7.1-.23-10.3-.07-.72-.29-.95-.54-1.02-1.31-.3-3.25.24-6.93,0-10.23.02-.68.55-1.01,1.13-1.2Z"/>
  </g>
  <path class="uuid-39b18235-7533-4b14-ba27-9032fb620680" d="M300.22,41.3h-4.03v-7.95c0-.07-.42-1.28-.47-1.33-.45-.47-1.9-.34-2.38.18-.19.2-.75,1.59-.75,1.79v7.32h-3.82v-7.74c0-.09-.41-1.47-.47-1.54-1.02-1.06-3.13.34-3.13,1.75v7.53h-4.03v-12.52h3.82v1.27c2-2.24,5.63-2.47,7.32.21,1.31-2.03,4.73-2.63,6.58-1.06,2.24,1.91,1.07,9.27,1.38,12.09Z"/>
  <path class="uuid-39b18235-7533-4b14-ba27-9032fb620680" d="M83.22,27.3v3.18l-1.7.21c1.92,3.97-1.48,6.22-5.2,6.17-1.27-.02-3.01-1.18-2.62.8,2.52.55,7.85-.41,8.89,2.88,1.82,5.73-7.2,6.09-10.68,4.74-2.67-1.04-2.66-3.66-.37-5.15-1.79-1.42-1.21-3.23.42-4.45-.74-.72-1.46-1.3-1.64-2.38-.68-4.05,3.6-5.27,6.84-4.93.58.06,2.07.64,2.31.59.11-.02,1.28-1.04,1.89-1.28.56-.21,1.25-.3,1.85-.38ZM77.85,31.39c-.71-.89-3.46-.83-3.55.9-.18,3.35,5.55,1.59,3.55-.9ZM78.5,42.73c1.82-2.02-3.55-2.06-4.63-1.76-.67.18-.81,1.19-.42,1.73.57.79,4.43.72,5.05.04Z"/>
  <path class="uuid-39b18235-7533-4b14-ba27-9032fb620680" d="M224.02,24.39c3.18-.36,6.26.53,8.53,2.81l-2.48,2.2c-.49.13-1.56-.95-2.13-1.2-1.46-.63-5.64-1.02-4.89,1.49.38,1.28,5.59,1.71,7.1,2.44,1.17.56,2.41,1.8,2.59,3.13,1.11,8-10.87,7.97-14.82,3.56l2.46-2.61c1.85,1.56,4.17,2.65,6.66,2.01,1.2-.31,2.09-1.7.92-2.63-2.12-1.67-7.95-.7-9.06-4.52-1.11-3.86,1.51-6.28,5.11-6.69Z"/>
  <path class="uuid-39b18235-7533-4b14-ba27-9032fb620680" d="M190.76,41.3l5.4-16.56,4.96.04,5.33,16.52h-4.45l-.61-2.21-5.94-.11-.76,2.31h-3.92ZM200.31,35.57l-1.8-7.43-2.02,7.43h3.82Z"/>
  <path class="uuid-39b18235-7533-4b14-ba27-9032fb620680" d="M70.07,41.3h-4.45l-.77-2.31-5.68-.04-.55,2.35h-4.24l5.22-16.56,5.29.22,5.19,16.34ZM64.13,35.57l-2.02-7.43-2.02,7.43h4.03Z"/>
  <path class="uuid-39b18235-7533-4b14-ba27-9032fb620680" d="M185.04,24.75v16.55h-3.82v-1.06c-5.99,4.54-10.94-2.32-8.59-8.27,1.38-3.5,5.29-4.78,8.38-2.55v-4.67h4.03ZM178.63,31.37c-3.21.28-2.95,6.41-.82,7.07,4.69,1.45,4.56-7.4.82-7.07Z"/>
  <path class="uuid-39b18235-7533-4b14-ba27-9032fb620680" d="M129.08,5.66l-3.89.83c-1.2-1.84-2.13-2.67-4.48-2.3-4.06.64-4.18,9.85.19,10.38,2.55.31,3.53-.64,4.69-2.73l3.69,1.03c-1.62,6.13-11.4,7.07-14.59,1.76-1.7-2.83-1.85-7.91.08-10.66,3.46-4.92,12.43-4.34,14.3,1.68Z"/>
  <path class="uuid-39b18235-7533-4b14-ba27-9032fb620680" d="M237.01,28.78l2.02,9.33,2.01-9.33h4.45c-1.43,4.19-2.32,8.72-3.76,12.89-1.32,3.83-3.23,4.66-7.27,4.08v-2.76c1.61,0,3.48.46,3.6-1.69l-1.35-.03-4.16-12.49h4.45Z"/>
  <path class="uuid-39b18235-7533-4b14-ba27-9032fb620680" d="M255.89,4.67c3.45-.3,6.83,1.57,7.45,5.15.9,5.23-2.53,8.61-7.72,8.14-7.67-.69-8.12-12.57.27-13.3ZM255.87,7.83c-2.81.58-2.67,7.43.96,7.12,3.44-.3,3.55-8.05-.96-7.12Z"/>
  <path class="uuid-39b18235-7533-4b14-ba27-9032fb620680" d="M136.04,4.67c10.17-.87,10.39,14.75-.64,13.25-7.36-1.01-7.5-12.55.64-13.25ZM134.88,8.49c-1.17,1.32-1.05,5.38.78,6.19,4.66,2.06,5.49-8.01.36-6.85-.21.05-1.01.5-1.15.66Z"/>
  <path class="uuid-39b18235-7533-4b14-ba27-9032fb620680" d="M156.82,41.3h-4.03l-.32-1.06c-3.16,3.02-8.73,1.29-7.7-3.66.61-2.91,5.21-3.28,7.59-3.33.02-.57.1-1.86-.57-2.09-.88-.3-2.98-.11-2.62,1.24h-4.03c-.26-4.52,7.68-4.99,10.08-2.97s.24,9.05,1.59,11.88ZM152.37,35.57c-1.38-.19-4.82.67-3.41,2.67,1.2,1.7,4.25-.76,3.41-2.67Z"/>
  <path class="uuid-39b18235-7533-4b14-ba27-9032fb620680" d="M216.48,17.75h-4.03v-8.38c0-2.12-4.03-1.63-4.03.85v7.53h-3.71l-.32-.32V5.03h3.82v1.48c1.74-1.81,4.49-2.67,6.68-1.06.69.51,1.59,2.05,1.59,2.86v9.44Z"/>
  <path class="uuid-39b18235-7533-4b14-ba27-9032fb620680" d="M273.11,17.75v-8.17c0-.19-.52-1.2-.76-1.36-1.3-.84-3.27.47-3.27,1.78v7.74h-4.03V5.03h3.82v1.48c1.71-2.08,5.74-2.83,7.39-.28.27.42.88,2.1.88,2.51v8.7l-.32.32h-3.71Z"/>
  <path class="uuid-39b18235-7533-4b14-ba27-9032fb620680" d="M157.3,17.75h-4.03v-8.38c0-.99-1.32-1.53-2.21-1.37-.73.13-1.82,1.32-1.82,2.01v7.74h-3.71l-.32-.32V5.03h3.82v1.48c1.76-2.02,5.52-2.83,7.3-.41.32.43.97,1.96.97,2.43v9.23Z"/>
  <path class="uuid-39b18235-7533-4b14-ba27-9032fb620680" d="M96.16,36h-8.7c.32,2.14,1.98,3.29,4.07,2.48.79-.31.94-.83,1.54-1.23l3.08,1.4c-3.07,4.55-10.91,4.11-12.41-1.59-2.85-10.83,13.6-12.06,12.41-1.06ZM92.13,33.66c.14-1.9-1.31-2.98-3.13-2.38-.91.3-1.83,1.55-1.22,2.38h4.35Z"/>
  <path class="uuid-39b18235-7533-4b14-ba27-9032fb620680" d="M235.36,12.24c.09,3.07,3.99,3.83,5.42,1.26.93.41,1.91.74,2.79,1.24.19.11.36-.08.25.33-.23.86-1.79,1.95-2.58,2.3-4,1.74-9.21.02-9.85-4.66-1.47-10.7,13.59-10.8,12.67-.48h-8.7ZM240.02,9.91c-.06-3.3-4.56-3.36-4.67,0h4.67Z"/>
  <path class="uuid-39b18235-7533-4b14-ba27-9032fb620680" d="M279.64,36h-8.7c.08,1.28.68,2.28,1.95,2.61,2.35.62,2.97-1.32,3.67-1.33.3,0,2.94,1.2,2.86,1.57-.06.27-1.73,1.71-2.11,1.93-3.83,2.26-9.66.44-10.35-4.3-1.56-10.81,13.64-10.88,12.67-.47ZM275.61,33.66c0-3.44-4.67-3.44-4.67,0h4.67Z"/>
  <path class="uuid-39b18235-7533-4b14-ba27-9032fb620680" d="M202.9,12.24h-8.7c.05,3.12,3.85,3.77,5.43,1.29.88.47,1.93.73,2.79,1.21.19.11.35-.07.24.34-.38,1.44-3.19,2.71-4.56,2.87-3.91.46-7.55-1.37-7.94-5.59-.98-10.53,13.56-10.13,12.74-.11ZM198.87,9.91c-.09-3.33-4.64-3.29-4.67,0h4.67Z"/>
  <path class="uuid-39b18235-7533-4b14-ba27-9032fb620680" d="M179.99,12.24h-8.7c-.03,3.18,3.84,3.71,5.43,1.29.85.46,1.98.75,2.79,1.21.16.09.39-.04.25.34-.53,1.47-3.09,2.69-4.56,2.87-3.91.46-7.55-1.37-7.94-5.59-.98-10.53,13.56-10.13,12.74-.11ZM175.96,9.91c-.09-3.33-4.64-3.29-4.67,0h4.67Z"/>
  <path class="uuid-39b18235-7533-4b14-ba27-9032fb620680" d="M170.61,41.3h-4.03v-7.95c0-1.69-2.27-2.14-3.32-1.09-.15.15-.71,1.19-.71,1.31v7.74h-4.03v-12.52h3.82c-.13,2.47.47.68,1.51.13,1.95-1.05,4.76-.84,5.96,1.21.28.48.8,2.1.8,2.59v8.59Z"/>
  <path class="uuid-39b18235-7533-4b14-ba27-9032fb620680" d="M109.73,41.3h-3.82v-7.53c0-.11-.36-1.3-.45-1.46-.5-.91-2.31-.71-2.95-.03-.11.12-.63,1-.63,1.07v7.95h-4.03v-12.52h3.82l.21,1.48c1.05-2.34,5.11-2.53,6.8-.75.29.3,1.05,1.61,1.05,1.92v9.86Z"/>
  <path class="uuid-39b18235-7533-4b14-ba27-9032fb620680" d="M256.95,30.06l-2.01,2.28c-.93-.57-1.84-1.16-2.98-1.23-.89-.05-2.69.2-1.91,1.49.64,1.06,6.57.56,7.1,3.93.98,6.27-8.77,6.25-11.99,3.06l1.72-2.33c1.14,1.12,4.74,2.26,5.93,1.06,1.63-1.65-3.61-2.15-4.49-2.5-3.62-1.44-3.43-5.61.09-6.99,2.78-1.09,6.12-.41,8.54,1.23Z"/>
  <path class="uuid-39b18235-7533-4b14-ba27-9032fb620680" d="M313.16,30.06l-2.01,2.28c-.98-.62-1.97-1.21-3.19-1.24-1.46-.03-2.95.99-1.17,1.82,2.16,1.01,6.1.5,6.56,3.83.83,6.06-8.92,5.99-11.98,2.85l1.71-2.32c1.61,1.24,4.65,2.42,6.15.66,0-.3,0-.69-.25-.9-.66-.55-3.25-.76-4.31-1.15-3.73-1.41-3.68-5.63-.06-7.05,2.78-1.09,6.12-.41,8.54,1.23Z"/>
  <path class="uuid-39b18235-7533-4b14-ba27-9032fb620680" d="M227.1,9.47c-.86-2.54-4.25-2.18-4.8.42-.88,4.15,2.32,7.18,5.14,3.21l3.26,1.04c-3.19,6.78-13.58,4.27-12.7-3.69.73-6.6,9.67-8,12.49-2.37l-3.37,1.38Z"/>
  <path class="uuid-39b18235-7533-4b14-ba27-9032fb620680" d="M139.22,31.96l-3.29,1.25c-2.68-4.12-6.1-.55-4.89,3.43.8,2.63,4.17,2.58,4.9-.02l3.49,1.28c-3.81,6.83-13.82,4.12-12.67-4.3.85-6.24,10.16-7.26,12.46-1.65Z"/>
  <path class="uuid-39b18235-7533-4b14-ba27-9032fb620680" d="M158.36,5.24h1.7c-.55-3.04,1.44-4.7,4.34-4.67.35,0,2.7.4,2.88.53.45.34.1,2.23.21,2.87-1.52-.48-3.93-1.13-3.6,1.27l3.09.2v2.57s-3.09.2-3.09.2v9.55h-3.82v-9.55h-1.7v-2.97Z"/>
  <path class="uuid-39b18235-7533-4b14-ba27-9032fb620680" d="M116.52,25.81v3.18h2.97v2.76h-2.97v6.05c0,.88,2.59.77,3.18.53v2.97c-2.12.51-5.77.91-6.83-1.55-.07-.16-.38-1.24-.38-1.32v-6.68l-1.7-.12v-2.64s1.7,0,1.7,0v-3.18h4.03Z"/>
  <path class="uuid-39b18235-7533-4b14-ba27-9032fb620680" d="M263.1,25.81v3.18h2.97v2.76h-2.97v5.41c0,.13.43,1.13.68,1.24.87.36,1.63-.05,2.5-.07v2.97c-1.88.51-4.87.84-6.26-.84-.2-.24-.73-1.17-.73-1.39v-7.32l-1.7-.12v-2.64s1.7,0,1.7,0v-3.18h3.82Z"/>
  <path class="uuid-39b18235-7533-4b14-ba27-9032fb620680" d="M189.75,8.42c-1.49-.08-3.02.23-3.73,1.68-.13.26-.52,1.41-.52,1.6v6.05h-3.71l-.32-.32V5.03h3.82l.11,1.7c.95-1.27,2.72-2.83,4.35-1.8v3.5Z"/>
  <rect class="uuid-39b18235-7533-4b14-ba27-9032fb620680" x="207.52" y="24.75" width="4.03" height="16.55"/>
  <rect class="uuid-39b18235-7533-4b14-ba27-9032fb620680" x="120.98" y="28.78" width="4.03" height="12.52"/>
  <path class="uuid-39b18235-7533-4b14-ba27-9032fb620680" d="M122.62,22.67c2.2-.41,3.73,2.66,1.61,3.96-3.12,1.91-5.11-3.3-1.61-3.96Z"/>
  <g>
    <path class="uuid-39b18235-7533-4b14-ba27-9032fb620680" d="M65.21,14.71h-5.9l-.67,2.44h-4.27L59.7.43h5.28l5.35,16.71h-4.44l-.67-2.44ZM62.27,3.56l-2.05,7.86h4.08l-2.03-7.86Z"/>
    <path class="uuid-39b18235-7533-4b14-ba27-9032fb620680" d="M86.01,4.97l-4.06,1.03c-.69-1.7-1.7-2.53-3.49-2.53-2.44,0-3.94,1.89-3.94,5.28s1.41,5.37,4.01,5.37c2.03,0,3.13-1.03,3.84-2.91l3.99,1.19c-1.34,3.41-4.39,5.18-7.97,5.18-4.23,0-8.21-2.56-8.21-8.81s3.99-8.76,8.26-8.76c3.2,0,6.16,1.31,7.57,4.97Z"/>
    <path class="uuid-39b18235-7533-4b14-ba27-9032fb620680" d="M106.52,17.14h-4.06V5.23l-3.1,11.91h-3.92l-3.41-11.72v11.72h-3.82V.43h5.85l3.39,11.94,2.96-11.94h6.11v16.71Z"/>
  </g>
</svg>