<?xml version="1.0" encoding="UTF-8"?>
<svg id="Layer_1" xmlns="http://www.w3.org/2000/svg" version="1.1" viewBox="0 0 1889.95 739.34">
  <!-- Generator: Adobe Illustrator 30.2.1, SVG Export Plug-In . SVG Version: 2.1.1 Build 1)  -->
  <defs>
    <style>
      .st0 {
        fill: #333;
      }
    </style>
  </defs>
  <g>
    <rect class="st0" x="476.25" y="6.09" width="199.94" height="199.94" rx="2.34" ry="2.34"/>
    <rect class="st0" x="8.47" y="6.09" width="199.94" height="199.94" rx="2.34" ry="2.34"/>
    <rect class="st0" x="476.25" y="239.05" width="199.94" height="199.94" rx="2.34" ry="2.34"/>
    <rect class="st0" x="476.25" y="472.03" width="199.94" height="199.94" rx="2.34" ry="2.34"/>
    <rect class="st0" x="242.37" y="472.03" width="199.94" height="199.94" rx="2.34" ry="2.34"/>
    <rect class="st0" x="8.47" y="472.03" width="199.94" height="199.94" rx="2.34" ry="2.34"/>
    <path class="st0" d="M430.69,6.09h-176.75c-6.41,0-11.6,5.19-11.6,11.6v176.75c0,6.41,5.19,11.6,11.6,11.6h51.48c10.76,0,19.49,8.73,19.49,19.49v83.33c0,10.76-8.73,19.49-19.49,19.49h-77.52c-10.76,0-19.49-8.73-19.49-19.49v-58.19c0-6.41-5.19-11.6-11.6-11.6H20.07c-6.41,0-11.6,5.19-11.6,11.6v176.75c0,6.41,5.19,11.6,11.6,11.6h410.62c6.41,0,11.6-5.19,11.6-11.6v-176.75c0-1.24-.24-2.43-.62-3.57h.62V17.71c0-6.41-5.19-11.6-11.6-11.6h0v-.03Z"/>
  </g>
  <g>
    <g>
      <path class="st0" d="M1026.44,475.16h-77.26c-3.45-33.24-24.18-52.66-56.54-52.66-40.57,0-65.6,36.26-65.6,95.82s25.04,95.82,64.74,95.82c32.36,0,53.52-19.84,57.84-54.38h78.12c-6.04,76.39-57.84,119.13-135.96,119.13-88.47,0-142.88-60.85-142.88-160.56s54.83-160.56,143.73-160.56c79.42,0,130.78,45.76,133.81,117.4h0Z"/>
      <path class="st0" d="M1130.89,606.8l-19.84,65.18h-78.56l104.89-307.31h97.98l104.89,307.31h-78.56l-19.42-65.18h-111.38ZM1217.65,524.79c-11.22-36.69-22.01-74.67-31.08-111.79h-.86c-9.07,37.12-19.42,75.11-30.22,111.79l-6.04,20.72h74.67l-6.48-20.72h.01Z"/>
      <path class="st0" d="M1364.83,671.98v-307.31h74.67v307.31h-74.67Z"/>
      <path class="st0" d="M1728.7,458.33h-77.7c0-27.19-15.97-42.73-45.76-42.73-24.6,0-40.57,11.66-40.57,28.91,0,20.28,16.39,26.77,61.29,37.98,59.14,14.67,110.92,30.65,110.92,97.98,0,60-49.21,98.4-125.6,98.4s-128.62-38.41-128.62-107.03h79.42c0,31.5,16.83,47.48,50.93,47.48,28.05,0,45.32-12.52,45.32-32.36,0-23.31-17.7-28.05-58.7-38.84-58.7-15.11-111.79-30.22-111.79-96.68,0-56.11,46.62-93.67,120.43-93.67s120.43,34.53,120.43,100.57h.01Z"/>
    </g>
    <g>
      <path class="st0" d="M856.74,6.09h87.41l108.28,308.32h-75.23l-20-62.18h-116.54l-20,62.18h-71.75L856.74,6.09ZM938.49,193.08l-39.57-123.94-39.57,123.94h79.15Z"/>
      <path class="st0" d="M1101.13,284.4c-32.18-32.61-43.05-74.8-43.05-123.94s10.44-92.63,43.49-124.81c25.22-24.35,59.58-35.66,96.98-35.66,68.71,0,124.37,47.84,126.98,115.24h-71.32c-1.3-30.01-21.74-51.75-56.97-51.75-19.13,0-33.48,6.09-43.49,16.09-19.13,19.13-23.92,45.23-23.92,80.88s4.35,61.75,23.48,80.88c10.44,10.44,25.66,16.53,46.1,16.53,38.7,0,53.49-26.53,54.79-52.62h70.88c-6.09,70.45-56.53,115.24-126.55,115.24-36.96,0-72.62-10.87-97.41-36.09Z"/>
      <path class="st0" d="M1706.89,6.09v308.32h-69.14V96.98l-73.49,213.08h-55.23l-73.06-213.95v218.3h-66.53V6.09h96.98l73.06,210.04L1612.96,6.09h93.93Z"/>
    </g>
  </g>
</svg>