<?xml version="1.0" encoding="UTF-8"?>
<svg id="Layer_1" xmlns="http://www.w3.org/2000/svg" version="1.1" viewBox="0 0 381.76 56.44" width="381.76" height="56.44">
  <!-- Generator: Adobe Illustrator 30.1.0, SVG Export Plug-In . SVG Version: 2.1.1 Build 136)  -->
  <defs>
    <style>
      .st0 {
        fill: #252523;
      }
    </style>
  </defs>
  <g>
    <path class="st0" d="M32.72.55l.59.58.14,32.16c.02.54-.17,1.08-.71,1.25l-32.21.09-1.16-.55v-14.71l1.17-.54,13.78.05c.25.07.55.17.64.44.44,1.33-.73,5.74.93,6.43.43.17,6.34.2,7.09.1.61-.09,1.08-.57,1.17-1.17.29-2.25-.17-5.31-.1-7.63-1.02-1.72-5.89.34-6.33-1.56l.1-14.35.59-.58h14.34-.02Z"/>
    <path class="st0" d="M32,52.92h-12.92c-.77-.41-1.29-.8-1.41-1.72.29-3.85-.44-8.42-.01-12.18.16-1.4.92-1.79,2.24-1.89,2.94-.21,8.82-.32,11.66,0,1.12.12,1.78.74,1.89,1.88.34,3.81-.28,8.15,0,12.02-.11,1.02-.55,1.44-1.44,1.88h-.01Z"/>
    <path class="st0" d="M13.7.55c.58.44,1.25.64,1.25,1.52-.36,4.02.47,8.82,0,12.74-.14,1.12-.86,1.43-1.88,1.52-2.72.26-9.38.32-12.03,0-.92-.11-1.25-.53-1.7-1.25V.55h14.35Z"/>
    <path class="st0" d="M13.7,52.92H-.64v-14.53c.45-.74.77-1.16,1.7-1.25,2.65-.32,9.3-.26,12.03,0,1.02.1,1.75.42,1.88,1.52.47,3.92-.36,8.73,0,12.74,0,.88-.69,1.08-1.25,1.52h-.01Z"/>
    <path class="st0" d="M50.3,52.92h-12.92c-.58-.44-1.25-.64-1.25-1.52.28-4.06-.37-8.58,0-12.57.1-1.06.66-1.57,1.71-1.7,3.85-.47,8.73.28,12.66.09.73.29,1.16.59,1.25,1.44.47,3.98-.34,8.84-.01,12.9-.15.91-.76.96-1.43,1.35h-.01Z"/>
    <path class="st0" d="M50.3.55c.79.43,1.32.48,1.44,1.52-.28,4.06.37,8.58,0,12.57-.1,1.06-.66,1.57-1.71,1.7-3.85.47-8.73-.28-12.66-.09-.73-.29-1.16-.59-1.25-1.44-.47-3.98.34-8.84.01-12.9.14-.84.69-.9,1.24-1.35h12.93Z"/>
    <path class="st0" d="M37.51,18.89c3.92.27,8.7-.5,12.52-.05.81.1,1.68.61,1.71,1.52-.28,4.04.37,8.58,0,12.57-.1,1.04-.64,1.57-1.71,1.7-3.83.47-8.73-.28-12.66-.09-.88-.36-1.17-.66-1.25-1.61-.37-3.99.29-8.52,0-12.57.02-.84.68-1.24,1.39-1.47Z"/>
  </g>
  <path class="st0" d="M158,6.82l-4.78,1.02c-1.47-2.26-2.62-3.28-5.51-2.83-4.99.79-5.14,12.11.23,12.76,3.13.38,4.34-.79,5.76-3.36l4.53,1.27c-1.99,7.53-14.01,8.69-17.93,2.16-2.09-3.48-2.27-9.72.1-13.1,4.25-6.05,15.28-5.33,17.57,2.06h.01Z"/>
  <path class="st0" d="M313.85,5.59c4.24-.37,8.39,1.93,9.16,6.33,1.11,6.43-3.11,10.58-9.49,10-9.43-.85-9.98-15.45.33-16.35h0ZM313.82,9.48c-3.45.71-3.28,9.13,1.18,8.75,4.23-.37,4.36-9.89-1.18-8.75h0Z"/>
  <path class="st0" d="M166.55,5.59c12.5-1.07,12.77,18.13-.79,16.28-9.05-1.24-9.22-15.42.79-16.28ZM165.13,10.28c-1.44,1.62-1.29,6.61.96,7.61,5.73,2.53,6.75-9.84.44-8.42-.26.06-1.24.61-1.41.81h.01Z"/>
  <path class="st0" d="M265.41,21.68h-4.95v-10.3c0-2.61-4.95-2-4.95,1.04v9.25h-4.56l-.39-.39V6.03h4.69v1.82c2.14-2.22,5.52-3.28,8.21-1.3.85.63,1.95,2.52,1.95,3.51v11.6h0Z"/>
  <path class="st0" d="M335.01,21.68v-10.04c0-.23-.64-1.47-.93-1.67-1.6-1.03-4.02.58-4.02,2.19v9.51h-4.95V6.03h4.69v1.82c2.1-2.56,7.05-3.48,9.08-.34.33.52,1.08,2.58,1.08,3.08v10.69l-.39.39h-4.56Z"/>
  <path class="st0" d="M192.68,21.68h-4.95v-10.3c0-1.22-1.62-1.88-2.72-1.68-.9.16-2.24,1.62-2.24,2.47v9.51h-4.56l-.39-.39V6.03h4.69v1.82c2.16-2.48,6.78-3.48,8.97-.5.39.53,1.19,2.41,1.19,2.99v11.34h0Z"/>
  <path class="st0" d="M288.62,14.89c.11,3.77,4.9,4.71,6.66,1.55,1.14.5,2.35.91,3.43,1.52.23.14.44-.1.31.41-.28,1.06-2.2,2.4-3.17,2.83-4.92,2.14-11.32.02-12.11-5.73-1.81-13.15,16.7-13.27,15.57-.59h-10.69,0ZM294.34,12.03c-.07-4.06-5.6-4.13-5.74,0h5.74Z"/>
  <path class="st0" d="M248.72,14.89h-10.69c.06,3.83,4.73,4.63,6.67,1.59,1.08.58,2.37.9,3.43,1.49.23.14.43-.09.29.42-.47,1.77-3.92,3.33-5.6,3.53-4.81.57-9.28-1.68-9.76-6.87-1.2-12.94,16.67-12.45,15.66-.14h0ZM243.77,12.03c-.11-4.09-5.7-4.04-5.74,0h5.74Z"/>
  <path class="st0" d="M220.57,14.89h-10.69c-.04,3.91,4.72,4.56,6.67,1.59,1.04.57,2.43.92,3.43,1.49.2.11.48-.05.31.42-.65,1.81-3.8,3.31-5.6,3.53-4.81.57-9.28-1.68-9.76-6.87-1.2-12.94,16.67-12.45,15.66-.14h-.01ZM215.61,12.03c-.11-4.09-5.7-4.04-5.74,0h5.74Z"/>
  <g>
    <path class="st0" d="M147.64,30.28v20.34h-4.69v-1.3c-7.36,5.58-13.45-2.85-10.56-10.16,1.7-4.3,6.5-5.87,10.3-3.13v-5.74s4.95,0,4.95,0ZM139.77,38.42c-3.95.34-3.63,7.88-1.01,8.69,5.76,1.78,5.6-9.09,1.01-8.69Z"/>
    <path class="st0" d="M112.97,50.61h-4.95l-.39-1.3c-3.88,3.71-10.73,1.59-9.46-4.5.75-3.58,6.4-4.03,9.33-4.09.02-.7.12-2.29-.7-2.57-1.08-.37-3.66-.14-3.22,1.52h-4.95c-.32-5.56,9.44-6.13,12.39-3.65,2.95,2.48.29,11.12,1.95,14.6h.01ZM107.5,43.58c-1.7-.23-5.92.82-4.19,3.28,1.47,2.09,5.22-.93,4.19-3.28Z"/>
    <path class="st0" d="M129.92,50.61h-4.95v-9.77c0-2.08-2.79-2.63-4.08-1.34-.18.18-.87,1.46-.87,1.61v9.51h-4.95v-15.39h4.69c-.16,3.04.58.84,1.86.16,2.4-1.29,5.85-1.03,7.32,1.49.34.59.98,2.58.98,3.18v10.56h0Z"/>
  </g>
  <path class="st0" d="M278.47,11.5c-1.06-3.12-5.22-2.68-5.9.52-1.08,5.1,2.85,8.82,6.32,3.95l4.01,1.28c-3.92,8.33-16.69,5.25-15.61-4.53.9-8.11,11.88-9.83,15.35-2.91l-4.14,1.7h-.02Z"/>
  <path class="st0" d="M193.98,6.29h2.09c-.69-3.74,1.76-5.76,5.32-5.74.43,0,3.32.49,3.54.65.55.42.12,2.74.26,3.53-1.87-.59-4.83-1.39-4.42,1.56l3.8.25v3.16l-3.8.25v11.74h-4.69v-11.74h-2.09v-3.65Z"/>
  <path class="st0" d="M232.56,10.21c-1.83-.1-3.71.28-4.58,2.06-.16.32-.64,1.73-.64,1.97v7.44h-4.56l-.39-.39V6.03h4.69l.14,2.09c1.17-1.56,3.34-3.48,5.35-2.21v4.3Z"/>
  <g>
    <path class="st0" d="M66.35,50.61l6.64-20.35,6.1.05,6.55,20.3h-5.47l-.75-2.72-7.3-.14-.93,2.84h-4.83ZM78.09,43.58l-2.21-9.13-2.48,9.13h4.69Z"/>
    <rect class="st0" x="86.95" y="30.28" width="4.95" height="20.34"/>
  </g>
  <path class="st0" d="M364.92,50.61h-4.95v-9.77c0-.09-.52-1.57-.58-1.63-.55-.58-2.34-.42-2.92.22-.23.25-.92,1.95-.92,2.2v9h-4.69v-9.51c0-.11-.5-1.81-.58-1.89-1.25-1.3-3.85.42-3.85,2.15v9.25h-4.95v-15.39h4.69v1.56c2.46-2.75,6.92-3.04,9,.26,1.61-2.49,5.81-3.23,8.09-1.3,2.75,2.35,1.32,11.39,1.7,14.86h-.02Z"/>
  <path class="st0" d="M339.63,44.09h-10.69c.1,1.57.84,2.8,2.4,3.21,2.89.76,3.65-1.62,4.51-1.63.37,0,3.61,1.47,3.51,1.93-.07.33-2.13,2.1-2.59,2.37-4.71,2.78-11.87.54-12.72-5.28-1.92-13.29,16.76-13.37,15.57-.58h.01ZM334.68,41.23c0-4.23-5.74-4.23-5.74,0h5.74Z"/>
  <path class="st0" d="M380.82,36.81l-2.47,2.8c-1.2-.76-2.42-1.49-3.92-1.52-1.79-.04-3.63,1.22-1.44,2.24,2.65,1.24,7.5.61,8.06,4.71,1.02,7.45-10.96,7.36-14.72,3.5l2.1-2.85c1.98,1.52,5.71,2.97,7.56.81,0-.37,0-.85-.31-1.11-.81-.68-3.99-.93-5.3-1.41-4.58-1.73-4.52-6.92-.07-8.66,3.42-1.34,7.52-.5,10.5,1.51h.01Z"/>
  <path class="st0" d="M319.29,31.58v3.91h3.65v3.39h-3.65v6.65c0,.16.53,1.39.84,1.52,1.07.44,2-.06,3.07-.09v3.65c-2.31.63-5.99,1.03-7.69-1.03-.25-.29-.9-1.44-.9-1.71v-9l-2.09-.15v-3.24h2.09v-3.91h4.69-.01Z"/>
  <g>
    <path class="st0" d="M79.5,17.93h-7.25l-.82,3h-5.25L72.73.38h6.49l6.58,20.54h-5.46l-.82-3h-.01ZM75.89,4.22l-2.52,9.66h5.01s-2.49-9.66-2.49-9.66Z"/>
    <path class="st0" d="M105.07,5.96l-4.99,1.27c-.85-2.09-2.09-3.11-4.29-3.11-3,0-4.84,2.32-4.84,6.49s1.73,6.6,4.93,6.6c2.49,0,3.85-1.27,4.72-3.58l4.9,1.46c-1.65,4.19-5.4,6.37-9.8,6.37-5.2,0-10.09-3.15-10.09-10.83S90.52-.14,95.76-.14c3.93,0,7.57,1.61,9.3,6.11h0Z"/>
    <path class="st0" d="M130.27,20.93h-4.99V6.28l-3.81,14.64h-4.82l-4.19-14.4v14.4h-4.69V.38h7.19l4.17,14.67,3.64-14.67h7.51v20.54h0Z"/>
  </g>
  <path class="st0" d="M271.28,29.82c3.91-.44,7.69.65,10.48,3.45l-3.05,2.7c-.6.16-1.92-1.17-2.62-1.47-1.79-.77-6.93-1.25-6.01,1.83.47,1.57,6.87,2.1,8.73,3,1.44.69,2.96,2.21,3.18,3.85,1.36,9.83-13.36,9.8-18.21,4.38l3.02-3.21c2.27,1.92,5.12,3.26,8.19,2.47,1.47-.38,2.57-2.09,1.13-3.23-2.61-2.05-9.77-.86-11.13-5.56-1.36-4.74,1.86-7.72,6.28-8.22h.01Z"/>
  <path class="st0" d="M287.23,35.23l2.48,11.47,2.47-11.47h5.47c-1.76,5.15-2.85,10.72-4.62,15.84-1.62,4.71-3.97,5.73-8.93,5.01v-3.39c1.98,0,4.28.57,4.42-2.08l-1.66-.04-5.11-15.35h5.48Z"/>
  <path class="st0" d="M311.73,36.81l-2.47,2.8c-1.14-.7-2.26-1.43-3.66-1.51-1.09-.06-3.31.25-2.35,1.83.79,1.3,8.07.69,8.73,4.83,1.2,7.71-10.78,7.68-14.74,3.76l2.11-2.86c1.4,1.38,5.83,2.78,7.29,1.3,2-2.03-4.44-2.64-5.52-3.07-4.45-1.77-4.22-6.89.11-8.59,3.42-1.34,7.52-.5,10.5,1.51h0Z"/>
  <g>
    <path class="st0" d="M188.82,33.4v3.91l-2.09.26c2.36,4.88-1.82,7.64-6.39,7.58-1.56-.02-3.7-1.45-3.22.98,3.1.68,9.65-.5,10.93,3.54,2.24,7.04-8.85,7.48-13.13,5.83-3.28-1.28-3.27-4.5-.45-6.33-2.2-1.75-1.49-3.97.52-5.47-.91-.88-1.79-1.6-2.02-2.92-.84-4.98,4.42-6.48,8.41-6.06.71.07,2.54.79,2.84.73.14-.02,1.57-1.28,2.32-1.57.69-.26,1.54-.37,2.27-.47h.01ZM182.22,38.44c-.87-1.09-4.25-1.02-4.36,1.11-.22,4.12,6.82,1.95,4.36-1.11ZM183.01,52.36c2.24-2.48-4.36-2.53-5.69-2.16-.82.22-1,1.46-.52,2.13.7.97,5.44.88,6.21.05h0Z"/>
    <path class="st0" d="M172.66,50.61h-5.47l-.95-2.84-6.98-.05-.68,2.89h-5.21l6.42-20.35,6.5.27,6.38,20.08h-.01ZM165.36,43.58l-2.48-9.13-2.48,9.13h4.97Z"/>
    <path class="st0" d="M204.73,44.09h-10.69c.39,2.63,2.43,4.04,5,3.05.97-.38,1.16-1.02,1.89-1.51l3.79,1.72c-3.77,5.59-13.41,5.05-15.25-1.95-3.5-13.31,16.71-14.82,15.25-1.3h.01ZM199.77,41.23c.17-2.34-1.61-3.66-3.85-2.92-1.12.37-2.25,1.9-1.5,2.92h5.35Z"/>
    <path class="st0" d="M221.4,50.61h-4.69v-9.25c0-.14-.44-1.6-.55-1.79-.61-1.12-2.84-.87-3.63-.04-.14.15-.77,1.23-.77,1.32v9.77h-4.95v-15.39h4.69l.26,1.82c1.29-2.88,6.28-3.11,8.36-.92.36.37,1.29,1.98,1.29,2.36v12.12h0Z"/>
    <path class="st0" d="M257.65,39.14l-4.04,1.54c-3.29-5.06-7.5-.68-6.01,4.22.98,3.23,5.12,3.17,6.02-.02l4.29,1.57c-4.68,8.39-16.98,5.06-15.57-5.28,1.04-7.67,12.49-8.92,15.31-2.03h0Z"/>
    <path class="st0" d="M229.75,31.58v3.91h3.65v3.39h-3.65v7.44c0,1.08,3.18.95,3.91.65v3.65c-2.61.63-7.09,1.12-8.39-1.9-.09-.2-.47-1.52-.47-1.62v-8.21l-2.09-.15v-3.24h2.09v-3.91h4.95Z"/>
    <rect class="st0" x="235.23" y="35.23" width="4.95" height="15.39"/>
  </g>
</svg>