<?xml version="1.0" encoding="UTF-8"?>
<svg id="Layer_1" xmlns="http://www.w3.org/2000/svg" xmlns:xlink="http://www.w3.org/1999/xlink" xmlns:name="mainText_mainfill" version="1.1" viewBox="0 0 2965.26 547.63">
  <!-- Generator: Adobe Illustrator 30.3.0, SVG Export Plug-In . SVG Version: 2.1.3 Build 182)  -->
  <defs>
    <style>
      .st0 {
        fill: url(#linear-gradient2);
      }

      .st1 {
        fill: url(#linear-gradient1);
      }

      .st2 {
        fill: url(#linear-gradient);
      }

      .st3 {
        fill: #201e1f;
      }
    </style>
    <linearGradient id="linear-gradient" x1="1332.17" y1="425.09" x2="1332.61" y2="425.09" gradientTransform="translate(-1679114.46 536066.73) scale(1260.43 -1260.43)" gradientUnits="userSpaceOnUse">
      <stop offset="0" stop-color="#006838"/>
      <stop offset="1" stop-color="#96cf24"/>
    </linearGradient>
    <linearGradient id="linear-gradient1" x1="1331.41" y1="425.3" x2="1331.84" y2="425.3" gradientTransform="translate(-1230568.39 393385.72) scale(924.32 -924.32)" xlink:href="#linear-gradient"/>
    <linearGradient id="linear-gradient2" x1="1329.76" y1="425.76" x2="1330.2" y2="425.76" gradientTransform="translate(-782022.33 250704.71) scale(588.2 -588.2)" xlink:href="#linear-gradient"/>
  </defs>
  <g id="main_text">
    <path class="st3" d="M891.55,353.85h-46.12v-101.23l-64.98,75.42-64.98-75.42v101.23h-46.12v-218.71l111.1,125.31,111.1-125.31v218.71ZM978.43,350.08c-13.25-5.22-24.61-14.07-34.08-26.54-9.48-12.47-14.21-28.77-14.21-48.88s4.79-36.36,14.36-48.73,21.03-21.18,34.37-26.4c13.34-5.22,26.01-7.83,38-7.83,13.92,0,27.17,3.09,39.74,9.28,12.57,6.19,22.87,15.28,30.89,27.27,8.03,11.99,12.23,26.2,12.62,42.64,0,5.03-.1,9.38-.29,13.05-.19,3.67-.39,5.99-.58,6.96h-125.89c2.32,11.22,8.12,18.85,17.4,22.92,9.28,4.06,17.98,6.09,26.11,6.09,10.44,0,18.76-1.89,24.95-5.66,6.19-3.77,11.51-8.07,15.95-12.91l33.65,19.43c-18.18,24.75-43.03,37.13-74.55,37.13-12.38,0-25.19-2.61-38.43-7.83h0ZM987.28,238.54c-7.54,5.9-11.8,13.1-12.76,21.61h79.77c-.58-5.03-2.51-9.86-5.8-14.5-3.29-4.64-7.69-8.46-13.2-11.46s-11.75-4.5-18.71-4.5c-11.99,0-21.76,2.95-29.3,8.85ZM1277.78,394.02c-14.21,13.25-33.99,19.87-59.32,19.87-30.36,0-55.79-8.03-76.29-24.08l21.18-30.75c6.57,5.22,14.36,9.48,23.35,12.76,8.99,3.29,18.52,4.93,28.57,4.93,27.27,0,40.9-12.38,40.9-37.13v-2.61c-11.6,9.48-26.49,14.21-44.67,14.21-16.82,0-31.62-3.53-44.38-10.59-12.76-7.06-22.53-16.68-29.3-28.86-6.77-12.18-10.15-25.62-10.15-40.32s3.38-28.38,10.15-40.46,16.49-21.71,29.15-28.86c12.67-7.16,27.51-10.73,44.53-10.73,18.18,0,33.07,4.74,44.67,14.21v-11.31h42.93v145.32c0,23.01-7.11,41.14-21.32,54.39h0ZM1236.3,309.03c6.67-3.77,11.94-8.99,15.81-15.66,3.87-6.67,5.8-13.97,5.8-21.9s-1.93-15.47-5.8-22.05c-3.87-6.57-9.14-11.75-15.81-15.52s-14.07-5.66-22.19-5.66c-13.15,0-23.74,4.11-31.76,12.33-8.03,8.22-12.04,18.52-12.04,30.89,0,12.76,3.92,23.16,11.75,31.18s18.52,12.04,32.05,12.04c8.12,0,15.52-1.89,22.19-5.66ZM1462.99,337.89c-3.67,5.03-10.01,9.52-19,13.49-8.99,3.96-18.81,5.95-29.44,5.95-16.44,0-30.7-3.67-42.79-11.02-12.09-7.35-21.32-17.36-27.7-30.02-6.38-12.67-9.57-26.73-9.57-42.2s3.19-29.54,9.57-42.2c6.38-12.67,15.62-22.67,27.7-30.02,12.09-7.35,26.35-11.02,42.79-11.02,11.02,0,20.74,1.89,29.15,5.66s14.84,8.56,19.29,14.36v-16.53h42.93v159.54h-42.93v-15.95ZM1452.84,241.44c-7.93-8.41-18.56-12.62-31.91-12.62s-24.22,4.21-32.05,12.62c-7.83,8.41-11.75,19.29-11.75,32.63,0,12.96,4.01,23.69,12.04,32.2,8.03,8.51,18.61,12.76,31.76,12.76s24.22-4.01,32.05-12.04c7.83-8.03,11.75-19,11.75-32.92,0-13.34-3.96-24.22-11.89-32.63h0ZM1691.42,394.02c-14.21,13.25-33.99,19.87-59.32,19.87-30.36,0-55.79-8.03-76.29-24.08l21.18-30.75c6.57,5.22,14.36,9.48,23.35,12.76,8.99,3.29,18.52,4.93,28.57,4.93,27.27,0,40.9-12.38,40.9-37.13v-2.61c-11.6,9.48-26.49,14.21-44.67,14.21-16.82,0-31.62-3.53-44.38-10.59-12.76-7.06-22.53-16.68-29.3-28.86-6.77-12.18-10.15-25.62-10.15-40.32,0-14.89,3.38-28.38,10.15-40.46,6.77-12.09,16.49-21.71,29.15-28.86,12.67-7.16,27.51-10.73,44.53-10.73,18.18,0,33.07,4.74,44.67,14.21v-11.31h42.93v145.32c0,23.01-7.11,41.14-21.32,54.39ZM1649.94,309.03c6.67-3.77,11.94-8.99,15.81-15.66,3.87-6.67,5.8-13.97,5.8-21.9s-1.93-15.47-5.8-22.05c-3.87-6.57-9.14-11.75-15.81-15.52s-14.07-5.66-22.19-5.66c-13.15,0-23.74,4.11-31.76,12.33-8.03,8.22-12.04,18.52-12.04,30.89s3.92,23.16,11.75,31.18c7.83,8.03,18.52,12.04,32.05,12.04,8.12,0,15.52-1.89,22.19-5.66h0ZM1791.2,346.45c-13.25-7.45-23.74-17.55-31.47-30.31-7.74-12.76-11.6-26.69-11.6-41.77,0-14.89,3.87-28.72,11.6-41.48,7.74-12.76,18.23-22.87,31.47-30.31,13.25-7.45,27.7-11.17,43.37-11.17,15.66,0,30.17,3.72,43.51,11.17,13.34,7.45,23.93,17.55,31.76,30.31,7.83,12.76,11.75,26.59,11.75,41.48s-3.92,29.01-11.75,41.77c-7.83,12.76-18.42,22.87-31.76,30.31-13.34,7.45-27.85,11.17-43.51,11.17s-30.12-3.72-43.37-11.17h0ZM1812.52,235.35c-6.77,3.96-12.09,9.38-15.95,16.24-3.87,6.86-5.8,14.46-5.8,22.77s1.89,16.49,5.66,23.35c3.77,6.86,8.99,12.28,15.66,16.24,6.67,3.96,14.17,5.95,22.48,5.95s15.52-1.98,22.19-5.95c6.67-3.96,11.94-9.43,15.81-16.39s5.8-14.7,5.8-23.21c0-8.32-1.93-15.91-5.8-22.77-3.87-6.86-9.14-12.28-15.81-16.24-6.67-3.96-14.07-5.95-22.19-5.95-7.93,0-15.28,1.98-22.05,5.95h0ZM2090.55,209.1c9.96,11.8,14.94,28.62,14.94,50.47v94.27h-44.38v-94.27c0-21.47-10.25-32.2-30.75-32.2-7.93,0-15.08,3.14-21.47,9.43-6.38,6.28-9.38,17.16-8.99,32.63v84.41h-43.22v-159.54h43.22v14.21c5.22-5.22,11.8-9.38,19.72-12.47,7.93-3.09,15.57-4.64,22.92-4.64,22.05,0,38.05,5.9,48.01,17.69h0ZM2394.4,353.85h-157.22v-212.04h46.12v172.3h111.1v39.74ZM2540.88,337.89c-3.67,5.03-10.01,9.52-19,13.49-8.99,3.96-18.81,5.95-29.44,5.95-16.44,0-30.7-3.67-42.79-11.02-12.09-7.35-21.32-17.36-27.7-30.02-6.38-12.67-9.57-26.73-9.57-42.2,0-15.47,3.19-29.54,9.57-42.2,6.38-12.67,15.62-22.67,27.7-30.02,12.09-7.35,26.35-11.02,42.79-11.02,11.02,0,20.74,1.89,29.15,5.66,8.41,3.77,14.84,8.56,19.29,14.36v-16.53h42.93v159.54h-42.93v-15.95ZM2530.73,241.44c-7.93-8.41-18.56-12.62-31.91-12.62s-24.22,4.21-32.05,12.62c-7.83,8.41-11.75,19.29-11.75,32.63s4.01,23.69,12.04,32.2c8.03,8.51,18.61,12.76,31.76,12.76s24.22-4.01,32.05-12.04,11.75-19,11.75-32.92-3.96-24.22-11.89-32.63h0ZM2626.75,353.85v-219.29h42.93v76.29c4.45-5.8,10.88-10.59,19.29-14.36,8.41-3.77,18.13-5.66,29.15-5.66,16.44,0,30.7,3.67,42.79,11.02,12.09,7.35,21.32,17.36,27.7,30.02s9.57,26.73,9.57,42.2-3.19,29.54-9.57,42.2c-6.38,12.67-15.62,22.67-27.7,30.02-12.09,7.35-26.35,11.02-42.79,11.02-10.64,0-20.45-1.98-29.44-5.95-8.99-3.96-15.33-8.46-19-13.49v15.95h-42.93ZM2679.68,307c7.83,8.03,18.52,12.04,32.05,12.04s23.74-4.25,31.76-12.76,12.04-19.24,12.04-32.2-3.92-24.22-11.75-32.63c-7.83-8.41-18.52-12.62-32.05-12.62-13.34,0-23.98,4.21-31.91,12.62-7.93,8.41-11.89,19.29-11.89,32.63s3.92,24.9,11.75,32.92h0ZM2824.57,332.67l22.63-30.17c6.96,4.83,15.08,8.9,24.37,12.18,9.28,3.29,18.37,4.93,27.27,4.93,6.57,0,12.04-1.35,16.39-4.06s6.53-6.09,6.53-10.15c0-4.06-2.47-6.91-7.4-8.56s-9.72-2.8-14.36-3.48c-4.64-.68-7.64-1.11-8.99-1.31-11.6-1.93-21.61-4.25-30.02-6.96-8.41-2.71-16.05-7.54-22.92-14.5-6.86-6.96-10.3-16.53-10.3-28.72,0-20.11,7.3-33.55,21.9-40.32,14.6-6.77,29.25-10.15,43.95-10.15,12.57,0,24.17,1.84,34.81,5.51,10.64,3.67,21.17,9.48,31.62,17.4l-22.63,29.59c-7.54-4.45-14.99-8.03-22.34-10.73-7.35-2.71-14.99-4.06-22.92-4.06-4.83,0-9.52,1.06-14.07,3.19-4.54,2.13-6.82,5.03-6.82,8.7,0,4.64,3.14,7.93,9.43,9.86,6.28,1.93,13.2,3.38,20.74,4.35,13.54,2.32,24.37,4.74,32.49,7.25,8.12,2.51,15.33,7.2,21.61,14.07,6.28,6.86,9.43,16.58,9.43,29.15,0,16.63-5.7,29.44-17.11,38.43-11.41,8.99-27.56,13.49-48.44,13.49-29.01,0-53.95-8.32-74.84-24.95h0Z"/>
  </g>
  <g id="SvgjsG3880">
    <path class="st2" d="M346.89.41h-146.74l-127.07,73.37L-.3,200.85v146.73l73.37,127.08,127.07,73.37h146.73l127.08-73.37,73.37-127.07v-146.74l-73.37-127.07L346.89.41ZM510.82,337.81l-63.59,110.13-110.13,63.59h-127.17l-110.13-63.59-63.59-110.13v-127.17l63.59-110.13,110.13-63.59h127.17l110.13,63.59,63.59,110.13v127.17Z"/>
    <path class="st1" d="M327.32,73.43h-107.6l-93.19,53.8-53.8,93.19v107.61l53.8,93.19,93.19,53.8h107.6l93.19-53.8,53.8-93.19v-107.6l-53.8-93.19-93.19-53.81ZM437.8,318.25l-44.02,76.24-76.25,44.02h-88.03l-76.25-44.02-44.02-76.24v-88.05l44.02-76.24,76.25-44.02h88.04l76.25,44.02,44.02,76.24v88.05Z"/>
    <path class="st0" d="M307.76,146.44h-68.48l-59.31,34.24-34.23,59.3v68.48l34.23,59.3,59.31,34.24h68.48l59.31-34.24,34.23-59.3v-68.48l-34.23-59.3-59.31-34.24ZM364.79,298.68l-24.45,42.36-42.36,24.45h-48.92l-42.36-24.46-24.45-42.35v-48.92l24.45-42.36,42.36-24.45h48.92l42.36,24.46,24.45,42.35v48.92Z"/>
  </g>
</svg>