
		<svg xmlns="http://www.w3.org/2000/svg" xmlns:xlink="http://www.w3.org/1999/xlink" version="1.1" viewBox="0 130 3100 2020" width="3100" height="2020">

			<g transform="scale(10.309278350515465) translate(10, 10)">
				<defs id="SvgjsDefs3878"><linearGradient id="SvgjsLinearGradient3881"><stop id="SvgjsStop3882" stop-color="#006838" offset="0"/><stop id="SvgjsStop3883" stop-color="#96cf24" offset="1"/></linearGradient></defs><g id="main_text" rel="mainfill" name="main_text" feature="main_text" xmlns:name="mainText_mainfill" groupName="main_text" fill="#201e1f" transform="translate(-2.8703985786437984, 145.66079978942872) scale(1.8399999999999999)"><path d="M16.88 24 l-3.18 0 l0 -6.98 l-4.48 5.2 l-4.48 -5.2 l0 6.98 l-3.18 0 l0 -15.08 l7.66 8.64 l7.66 -8.64 l0 15.08 z M22.87 23.74 q-1.37 -0.54 -2.35 -1.83 t-0.98 -3.37 t0.99 -3.36 t2.37 -1.82 t2.62 -0.54 q1.44 0 2.74 0.64 t2.13 1.88 t0.87 2.94 q0 0.52 -0.02 0.9 t-0.04 0.48 l-8.68 0 q0.24 1.16 1.2 1.58 t1.8 0.42 q1.08 0 1.72 -0.39 t1.1 -0.89 l2.32 1.34 q-1.88 2.56 -5.14 2.56 q-1.28 0 -2.65 -0.54 z M23.48 16.05 q-0.78 0.61 -0.88 1.49 l5.5 0 q-0.06 -0.52 -0.4 -1 t-0.91 -0.79 t-1.29 -0.31 q-1.24 0 -2.02 0.61 z M43.51 26.77 q-1.47 1.37 -4.09 1.37 q-3.14 0 -5.26 -1.66 l1.46 -2.12 q0.68 0.54 1.61 0.88 t1.97 0.34 q2.82 0 2.82 -2.56 l0 -0.18 q-1.2 0.98 -3.08 0.98 q-1.74 0 -3.06 -0.73 t-2.02 -1.99 t-0.7 -2.78 q0 -1.54 0.7 -2.79 t2.01 -1.99 t3.07 -0.74 q1.88 0 3.08 0.98 l0 -0.78 l2.96 0 l0 10.02 q0 2.38 -1.47 3.75 z M40.65 20.91 q0.69 -0.39 1.09 -1.08 t0.4 -1.51 q0 -0.84 -0.4 -1.52 t-1.09 -1.07 t-1.53 -0.39 q-1.36 0 -2.19 0.85 t-0.83 2.13 q0 1.32 0.81 2.15 t2.21 0.83 q0.84 0 1.53 -0.39 z M56.279999999999994 22.9 q-0.38 0.52 -1.31 0.93 t-2.03 0.41 q-1.7 0 -2.95 -0.76 t-1.91 -2.07 t-0.66 -2.91 t0.66 -2.91 t1.91 -2.07 t2.95 -0.76 q1.14 0 2.01 0.39 t1.33 0.99 l0 -1.14 l2.96 0 l0 11 l-2.96 0 l0 -1.1 z M55.58 16.25 q-0.82 -0.87 -2.2 -0.87 q-1.4 0 -2.21 0.87 t-0.81 2.25 q0 1.34 0.83 2.22 t2.19 0.88 q1.4 0 2.21 -0.83 t0.81 -2.27 q0 -1.38 -0.82 -2.25 z M72.03 26.77 q-1.47 1.37 -4.09 1.37 q-3.14 0 -5.26 -1.66 l1.46 -2.12 q0.68 0.54 1.61 0.88 t1.97 0.34 q2.82 0 2.82 -2.56 l0 -0.18 q-1.2 0.98 -3.08 0.98 q-1.74 0 -3.06 -0.73 t-2.02 -1.99 t-0.7 -2.78 q0 -1.54 0.7 -2.79 t2.01 -1.99 t3.07 -0.74 q1.88 0 3.08 0.98 l0 -0.78 l2.96 0 l0 10.02 q0 2.38 -1.47 3.75 z M69.16999999999999 20.91 q0.69 -0.39 1.09 -1.08 t0.4 -1.51 q0 -0.84 -0.4 -1.52 t-1.09 -1.07 t-1.53 -0.39 q-1.36 0 -2.19 0.85 t-0.83 2.13 q0 1.32 0.81 2.15 t2.21 0.83 q0.84 0 1.53 -0.39 z M78.91 23.49 q-1.37 -0.77 -2.17 -2.09 t-0.8 -2.88 q0 -1.54 0.8 -2.86 t2.17 -2.09 t2.99 -0.77 t3 0.77 t2.19 2.09 t0.81 2.86 q0 1.56 -0.81 2.88 t-2.19 2.09 t-3 0.77 t-2.99 -0.77 z M80.38 15.83 q-0.7 0.41 -1.1 1.12 t-0.4 1.57 q0 0.9 0.39 1.61 t1.08 1.12 t1.55 0.41 q0.84 0 1.53 -0.41 t1.09 -1.13 t0.4 -1.6 q0 -0.86 -0.4 -1.57 t-1.09 -1.12 t-1.53 -0.41 q-0.82 0 -1.52 0.41 z M99.55 14.02 q1.03 1.22 1.03 3.48 l0 6.5 l-3.06 0 l0 -6.5 q0 -2.22 -2.12 -2.22 q-0.82 0 -1.48 0.65 t-0.62 2.25 l0 5.82 l-2.98 0 l0 -11 l2.98 0 l0 0.98 q0.54 -0.54 1.36 -0.86 t1.58 -0.32 q2.28 0 3.31 1.22 z  M120.49999999999999 24 l-10.84 0 l0 -14.62 l3.18 0 l0 11.88 l7.66 0 l0 2.74 z M130.6 22.9 q-0.38 0.52 -1.31 0.93 t-2.03 0.41 q-1.7 0 -2.95 -0.76 t-1.91 -2.07 t-0.66 -2.91 t0.66 -2.91 t1.91 -2.07 t2.95 -0.76 q1.14 0 2.01 0.39 t1.33 0.99 l0 -1.14 l2.96 0 l0 11 l-2.96 0 l0 -1.1 z M129.9 16.25 q-0.82 -0.87 -2.2 -0.87 q-1.4 0 -2.21 0.87 t-0.81 2.25 q0 1.34 0.83 2.22 t2.19 0.88 q1.4 0 2.21 -0.83 t0.81 -2.27 q0 -1.38 -0.82 -2.25 z M136.51999999999998 24 l0 -15.12 l2.96 0 l0 5.26 q0.46 -0.6 1.33 -0.99 t2.01 -0.39 q1.7 0 2.95 0.76 t1.91 2.07 t0.66 2.91 t-0.66 2.91 t-1.91 2.07 t-2.95 0.76 q-1.1 0 -2.03 -0.41 t-1.31 -0.93 l0 1.1 l-2.96 0 z M140.17 20.77 q0.81 0.83 2.21 0.83 q1.36 0 2.19 -0.88 t0.83 -2.22 q0 -1.38 -0.81 -2.25 t-2.21 -0.87 q-1.38 0 -2.2 0.87 t-0.82 2.25 q0 1.44 0.81 2.27 z M150.15999999999997 22.54 l1.56 -2.08 q0.72 0.5 1.68 0.84 t1.88 0.34 q0.68 0 1.13 -0.28 t0.45 -0.7 t-0.51 -0.59 t-0.99 -0.24 t-0.62 -0.09 q-1.2 -0.2 -2.07 -0.48 t-1.58 -1 t-0.71 -1.98 q0 -2.08 1.51 -2.78 t3.03 -0.7 q1.3 0 2.4 0.38 t2.18 1.2 l-1.56 2.04 q-0.78 -0.46 -1.54 -0.74 t-1.58 -0.28 q-0.5 0 -0.97 0.22 t-0.47 0.6 q0 0.48 0.65 0.68 t1.43 0.3 q1.4 0.24 2.24 0.5 t1.49 0.97 t0.65 2.01 q0 1.72 -1.18 2.65 t-3.34 0.93 q-3 0 -5.16 -1.72 z"/></g><g id="SvgjsG3880" rel="mainfill" name="symbol" feature="symbol" xmlns:name="symbol_mainfill" fill="url(#SvgjsLinearGradient3881)" transform="translate(77.20766666666667, 8.207666666666668) scale(1.3584666666666665)"><path d="M62.058,5H37.942L17.058,17.058L5,37.942v24.115l12.058,20.885L37.942,95h24.115l20.885-12.058L95,62.058V37.942  L82.942,17.058L62.058,5z M89,60.45l-10.45,18.1L60.45,89h-20.9l-18.1-10.45L11,60.45v-20.9l10.45-18.1L39.55,11h20.9l18.1,10.45  L89,39.55V60.45z"/><path d="M58.842,17H41.158l-15.316,8.842L17,41.158v17.685l8.842,15.315L41.158,83h17.684l15.316-8.842L83,58.842V41.158  l-8.842-15.315L58.842,17z M77,57.235l-7.234,12.53L57.234,77H42.766l-12.531-7.235L23,57.235v-14.47l7.234-12.53L42.766,23h14.469  l12.531,7.235L77,42.765V57.235z"/><path d="M55.627,29H44.373l-9.747,5.627L29,44.373v11.254l5.626,9.746L44.373,71h11.254l9.747-5.627L71,55.627V44.373l-5.626-9.746  L55.627,29z M65,54.02l-4.019,6.961L54.02,65H45.98l-6.962-4.02L35,54.02V45.98l4.019-6.961L45.98,35h8.039l6.962,4.02L65,45.98  V54.02z"/></g>
			</g>
		</svg>
