<svg width="352" height="107" viewBox="0 0 352 107" fill="none" xmlns="http://www.w3.org/2000/svg">
<path d="M225.845 53.7293C223.372 56.2837 219.636 58.2335 214.444 58.2335C209.252 58.2335 205.6 56.2837 203.127 53.7293C199.529 49.9934 198.623 45.1857 198.623 38.7304C198.623 32.3583 199.529 27.5783 203.127 23.816C205.6 21.2603 209.28 19.3105 214.444 19.3105C219.609 19.3105 223.372 21.2603 225.845 23.816C229.442 27.5518 230.349 32.3583 230.349 38.7304C230.321 45.1592 229.442 49.9657 225.845 53.7293ZM220.076 28.8693C218.648 27.5241 216.696 26.81 214.444 26.81C212.192 26.81 210.324 27.5241 208.896 28.8693C206.561 31.0673 206.286 34.8308 206.286 38.7304C206.286 42.6313 206.588 46.3949 208.896 48.5928C210.324 49.938 212.192 50.7353 214.444 50.7353C216.696 50.7353 218.648 49.9657 220.076 48.5928C222.411 46.3949 222.686 42.6313 222.686 38.7304C222.686 34.8586 222.383 31.0673 220.076 28.8693Z" fill="#14194D"/>
<path d="M136.653 50.1867C143.631 50.0759 147.146 47.6046 147.256 42.715C147.311 38.7046 144.976 36.3152 140.251 35.4902C138.081 35.1879 135.719 34.8592 133.137 34.5014C128.522 33.7331 125.007 32.0289 122.616 29.3927C120.145 26.6733 118.908 23.3493 118.908 19.4484C118.908 14.7516 120.474 10.988 123.579 8.10423C126.599 5.24755 130.885 3.81908 136.434 3.76416C143.108 3.90158 148.904 5.76938 153.848 9.31277L149.316 16.0149C145.278 13.3786 140.856 11.9767 136.022 11.8949C133.521 11.8949 131.434 12.5272 129.758 13.7628C128.029 15.0538 127.122 17.0036 127.066 19.5857C127.066 21.1249 127.671 22.5256 128.88 23.7889C130.088 25.0522 132.011 25.9591 134.648 26.4264C136.131 26.6733 138.137 26.9479 140.691 27.2779C145.718 27.9643 149.426 29.7768 151.843 32.6889C154.234 35.5456 155.414 38.8973 155.414 42.6873C155.139 52.9603 148.849 58.1522 136.571 58.2895C128.632 58.2895 121.792 55.8447 116.079 50.9274L121.408 44.8298C125.666 48.3465 130.748 50.1313 136.653 50.1867Z" fill="#14194D"/>
<path d="M161.54 19.6678H169.231V23.706H169.368C171.895 20.6843 175.219 19.1741 179.312 19.1741C182.471 19.1741 185.382 20.3001 187.992 22.5245C190.602 24.7778 191.947 28.1006 192.084 32.4687V57.8766H184.394V35.1327C184.394 32.4687 183.679 30.4081 182.251 29.0352C180.85 27.6068 179.038 26.8927 176.84 26.8927C174.642 26.8927 172.829 27.6068 171.401 29.0352C169.945 30.4358 169.231 32.4687 169.231 35.1327V57.8766H161.54V19.6678Z" fill="#14194D"/>
<path d="M237.16 19.6678H244.852V23.706H244.99C247.516 20.6843 250.84 19.1741 254.933 19.1741C258.01 19.2282 260.674 20.217 262.953 22.1126L257.377 28.7883C255.756 27.5237 254.081 26.8649 252.323 26.8649C250.373 26.8649 248.67 27.4972 247.297 28.7883C245.73 30.0516 244.906 32.0569 244.879 34.8581V57.8766H237.188V47.2736L237.16 19.6678Z" fill="#14194D"/>
<path d="M265.782 4.20215H273.502V37.6038H273.639L288.335 19.6664H297.537L284.352 34.5821L299.322 57.8764H289.681L279.518 40.0209L273.502 46.8615V57.8764H265.782V4.20215Z" fill="#14194D"/>
<path d="M342.558 4.66969V40.2694C342.558 50.6255 337.037 51.1192 329.977 51.1192H330.005H317.315C314.622 51.1192 312.479 50.2955 310.832 48.6744C309.074 47.0811 308.194 44.7471 308.194 41.67H332.01V35.3798C331.955 30.3529 330.389 26.3979 327.341 23.5135C324.319 20.6845 320.638 19.2561 316.271 19.2007C314.458 19.2007 312.617 19.5307 310.75 20.1895C308.854 20.8482 307.151 21.9478 305.64 23.4303C304.13 24.9141 302.921 26.9193 301.96 29.4737C300.999 31.9739 300.531 35.1329 300.531 38.8952C300.531 42.8238 301.08 46.0105 302.179 48.4553C303.195 51.0096 304.486 52.9871 306.107 54.4155C306.931 55.102 307.838 55.6788 308.799 56.1461C309.706 56.6953 310.639 57.1072 311.602 57.4372C313.524 58.0141 315.475 58.3163 317.48 58.3163H330.005H334.015C345.14 58.3163 349.701 50.5146 349.701 43.1538V0L342.558 4.66969ZM310.585 28.6222C312.068 27.1662 313.935 26.452 316.243 26.452C318.551 26.452 320.446 27.1662 321.902 28.6222C323.412 30.1337 324.21 32.3858 324.292 35.3521H308.194C308.332 32.3858 309.129 30.1602 310.585 28.6222Z" fill="#14194D"/>
<path d="M69.1197 67.0042C70.5065 66.8008 71.8578 66.4205 73.1559 65.8684C74.6986 65.214 76.1348 64.3297 77.4229 63.2432C77.4624 63.2116 77.4998 63.1775 77.5374 63.1446L78.4527 62.3096C78.508 62.2603 78.5612 62.2072 78.6145 62.1542C80.1828 60.556 81.4079 58.6938 82.2546 56.6206C83.1011 54.5436 83.5281 52.3593 83.5281 50.1244L83.542 6.95192C83.542 4.15862 82.1472 1.90376 79.7132 0.763575C78.2949 0.102709 76.8568 0.00795493 75.7599 0.00012207H75.5724C74.3395 0.00012207 72.8856 0.0889416 71.4455 0.759662C69.0032 1.89985 67.6045 4.15457 67.6045 6.94989L67.5986 23.9427C62.1301 18.8196 54.8606 15.8191 47.1393 15.754C30.4378 15.6139 16.7351 29.0895 16.597 45.7898C16.5694 49.0114 17.0566 52.3593 17.9148 55.0894C17.325 55.3421 16.6779 55.5139 16.0151 55.5076H15.9657C14.8689 55.4836 13.8075 54.9909 12.7166 53.9991C10.7695 52.2254 10.1027 49.6506 9.56614 47.5812L9.35112 46.7525C8.96048 45.2415 7.72946 44.0956 6.19473 43.8114C5.96391 43.7684 5.73107 43.7469 5.50025 43.7444C4.20417 43.7343 2.96329 44.3521 2.19592 45.4335C0.027861 48.4833 -0.567942 52.8128 0.55658 57.3129C1.25295 60.1075 2.56685 62.7833 4.35615 65.046C6.32094 67.5235 8.76921 69.3705 11.4402 70.39C11.8072 70.5303 12.18 70.6566 12.5549 70.764C12.3378 70.7728 12.1189 70.7766 11.894 70.7741C9.9094 70.7589 8.03532 70.3307 6.52813 69.9858C5.93624 69.8493 5.40752 69.7293 4.98935 69.6446C4.73288 69.5928 4.47642 69.5651 4.22198 69.5638C2.91402 69.5512 1.66329 70.1828 0.897814 71.282C0.0495907 72.4961 -0.0529961 74.0702 0.603954 75.3791C1.80933 77.9728 4.35211 80.1786 7.97607 81.7666C11.1464 83.1525 14.9755 83.9712 18.7631 84.0723C18.9485 84.0761 19.1379 84.0798 19.3254 84.0824C23.2709 84.1152 27.027 83.3762 30.1854 81.9435C31.296 81.4407 32.3317 80.8507 33.2846 80.1836C33.5174 81.3485 33.8646 82.5146 34.3301 83.6705C35.6953 87.0614 38.0389 90.3499 41.1045 93.1799C43.9117 95.7647 47.2319 97.8581 50.4594 99.0722C52.5505 99.8643 54.537 100.272 56.3598 100.288C57.7369 100.3 59.0112 100.083 60.1515 99.647C61.491 99.191 62.507 98.0514 62.791 96.6339C63.1145 95.0168 62.4142 93.3681 61.0274 92.4762C60.6861 92.2576 60.2423 91.9835 59.682 91.6398C58.2182 90.7454 56.3914 89.6298 54.8349 88.014C55.1328 88.1681 55.4248 88.3033 55.7088 88.4258C57.6165 89.2508 59.7017 89.6791 61.9072 89.6968C62.7595 89.7044 63.6295 89.6488 64.4955 89.5313C67.3323 89.1523 70.1198 88.1378 72.5522 86.5952C76.4563 84.1203 78.9834 80.5614 79.4904 76.8332C79.6995 75.2919 78.9992 73.7695 77.6951 72.9243C77.0422 72.5024 76.2965 72.2876 75.5488 72.2813C74.8012 72.2762 74.0535 72.4771 73.3945 72.8877L72.6785 73.3324C70.9345 74.4214 68.7724 75.7707 66.2651 75.7492C66.2079 75.7492 66.1506 75.748 66.0934 75.7454C64.6336 75.6962 63.5288 75.3058 62.7181 74.5478C62.1656 74.0348 61.781 73.3766 61.5127 72.7083C64.3337 71.2908 66.9141 69.3579 69.1197 67.0042Z" fill="#14194D"/>
<path fill-rule="evenodd" clip-rule="evenodd" d="M74.8708 76.7226C72.8506 77.9821 69.8344 79.8671 66.0309 79.7407C63.4307 79.6536 61.4778 78.797 60.0515 77.468C58.42 75.9494 57.5165 73.8358 57.1358 71.5731C56.9681 70.6584 57.0135 70.2996 57.5677 70.0697C67.0844 66.5436 73.1485 56.9079 73.2374 46.2502C73.3576 31.7367 61.6928 19.875 47.1793 19.7528C32.6658 19.6325 20.8035 31.297 20.6812 45.8105C20.6517 49.3467 21.3441 53.296 22.5692 55.8177C23.0703 56.7172 22.581 56.9029 22.1332 57.244C20.3044 58.64 18.1935 59.5534 15.9485 59.5067C14.0153 59.465 12.0209 58.7133 10.0855 56.9522C7.25658 54.3736 6.35707 50.8981 5.75343 48.5723L5.53841 47.7435C3.97006 49.9531 3.72737 53.1507 4.52039 56.3243C5.06881 58.5238 6.12233 60.7056 7.57419 62.5426C9.00849 64.3517 10.8313 65.821 12.9421 66.6283C15.771 67.7085 19.178 67.6023 22.9322 65.5329C23.232 65.351 23.6029 65.3005 23.958 65.4268C24.5892 65.6517 24.9266 66.3579 24.7057 67.001C24.169 68.5827 23.2557 70.057 21.8827 71.3052C20.6654 72.4132 19.0833 73.3393 17.071 74.0013C12.6284 75.463 8.46196 74.5129 5.70808 73.8838C5.12996 73.7511 4.62891 73.6374 4.26 73.5616L4.27378 73.5831C5.05707 75.3645 7.04156 76.931 9.65951 78.0769C12.3188 79.2417 15.5954 79.9593 18.9432 80.0465C22.2791 80.1349 25.6762 79.6005 28.6038 78.2727C31.5965 76.9171 34.1018 74.7125 35.5045 71.4745L35.5243 71.4215C35.7787 70.7847 36.4869 70.4765 37.1123 70.7317L37.1142 70.7329L37.1182 70.7355V70.7393C37.7258 70.9881 38.0336 71.688 37.8048 72.3172C36.5776 75.6664 36.8755 79.0446 38.1263 82.155C39.3376 85.1656 41.4326 87.9374 43.9005 90.214C46.3802 92.4982 49.2309 94.2758 51.9494 95.3016C54.6224 96.311 57.122 96.5751 58.9054 95.8335L58.929 95.8297C58.6133 95.6263 58.1734 95.3559 57.6645 95.0451C55.2419 93.5645 51.5864 91.3296 49.3729 87.158C48.3728 85.2692 47.856 83.4904 47.7317 81.8354C47.5876 79.9669 47.9348 78.2651 48.6233 76.7415V76.744C48.7594 76.4358 49.0218 76.1882 49.363 76.0795C50.0042 75.8736 50.6849 76.2324 50.892 76.8817C52.188 81.0344 54.585 83.5182 57.3744 84.726C59.4479 85.6204 61.7638 85.8415 64.0325 85.5358C66.3327 85.2301 68.5797 84.3925 70.4755 83.1885C73.2097 81.4526 75.2199 78.9726 75.5868 76.2741L74.8708 76.7226Z" fill="#84CEFF"/>
<path d="M78.9471 46.4546C78.7754 49.56 77.8168 51.6887 76.856 53.0911C76.6843 53.345 76.5068 53.5787 76.3392 53.7872C76.1715 53.9969 76.0058 54.1839 75.8499 54.3532C75.7749 54.4378 75.698 54.5136 75.627 54.5856H75.6211C74.5972 55.6178 73.5339 56.3758 72.4883 56.9216C72.3028 57.0239 72.1155 57.1136 71.9261 57.2021C71.5039 57.3928 71.0877 57.5546 70.6813 57.6809C70.6754 57.6872 70.6754 57.6872 70.6754 57.6872C69.3358 58.1218 68.0733 58.2658 66.9923 58.2608C66.9923 58.2608 66.8542 59.8172 66.1677 60.9682C65.5167 62.061 64.4139 63.0237 64.4139 63.0237L67.3177 63.0477C67.3177 63.0477 67.012 63.4696 66.5385 63.9901C66.0019 64.5953 65.5442 64.9857 65.5442 64.9857L53.7531 64.9149C49.8905 64.9137 46.7005 61.658 46.6985 57.7213V57.2097C44.7495 57.7567 39.1054 57.5217 39.1054 57.5217C35.8089 57.523 32.8182 56.1585 30.6541 53.9489L30.6482 53.9426C28.4841 51.738 27.1446 48.6895 27.1426 45.3328C27.1466 41.9747 28.4821 38.925 30.6522 36.7217V36.7153H30.658C32.8222 34.512 35.8109 33.1514 39.1093 33.1489L55.4615 33.1514L66.939 33.1628C68.0397 33.1628 69.105 33.3106 70.1132 33.5986C70.6517 33.749 71.1764 33.9321 71.6854 34.157V34.1078C71.6854 34.1078 71.6854 34.1078 71.6914 34.1141C71.8313 34.1747 73.5004 34.9289 75.2087 36.5991C77.1855 38.5346 79.2114 41.7031 78.9471 46.4546Z" fill="#14194D"/>
<path fill-rule="evenodd" clip-rule="evenodd" d="M53.0617 45.4834C53.0657 44.9692 53.3142 44.3691 53.6338 44.0217L53.6357 44.0179C54.0126 43.6111 54.5157 43.4127 55.0226 43.4127H55.0561H55.066H55.0758H55.1134C55.6203 43.4216 56.1136 43.6338 56.4804 44.0431C56.7962 44.3969 57.0348 44.9843 57.0309 45.5175C57.0032 48.8692 58.0528 50.7352 59.7513 52.495C61.4479 54.2499 63.8053 55.3515 66.4192 55.373C69.037 55.3945 71.4103 54.3333 73.1384 52.605C74.8627 50.8754 75.9437 48.4687 75.9653 45.803C75.9871 43.136 74.9514 40.7154 73.2548 38.9581C71.5543 37.1919 69.1948 36.0915 66.5811 36.07L43.6694 35.878C41.0615 35.8565 38.6804 36.9178 36.9561 38.6498L36.9502 38.6536C35.2261 40.3819 34.1508 42.7848 34.1292 45.4518C34.1075 48.1175 35.1451 50.5394 36.8398 52.2992C38.5364 54.0553 40.8977 55.1557 43.5116 55.1772C46.1255 55.1986 48.5027 54.1374 50.2308 52.4104C51.9531 50.6834 53.0341 48.8351 53.0617 45.4834Z" fill="white"/>
<path fill-rule="evenodd" clip-rule="evenodd" d="M70.3929 42.7376C71.8568 42.7502 73.0345 43.9744 73.0226 45.4741C73.0109 46.9737 71.8114 48.1789 70.3476 48.1676C68.8858 48.1549 67.7061 46.9307 67.7179 45.4311L70.3693 45.4526L70.3929 42.7376Z" fill="#14194D"/>
<path fill-rule="evenodd" clip-rule="evenodd" d="M48.5883 42.557C50.052 42.5684 51.2317 43.7938 51.2199 45.2935C51.208 46.7918 50.0086 47.9971 48.5428 47.9857C47.083 47.9743 45.9033 46.7488 45.9151 45.2492L48.5645 45.2707L48.5883 42.557Z" fill="#14194D"/>
<path fill-rule="evenodd" clip-rule="evenodd" d="M56.7427 54.0868C59.1849 54.107 61.1478 55.8807 61.1301 58.0449C61.1123 60.2103 59.1199 61.9487 56.6775 61.9285C54.2372 61.9095 52.2724 60.1358 52.2921 57.9716C52.31 55.8075 54.3024 54.0678 56.7427 54.0868Z" fill="white"/>
<path d="M79.5895 50.112C79.5895 51.8681 79.2364 53.5521 78.6129 55.0934C77.96 56.6928 77.0012 58.1306 75.8254 59.332L74.9081 60.1646C73.9356 60.987 72.8387 61.6642 71.659 62.1632C70.6273 62.6054 69.3253 63.064 68.3487 63.0564L64.417 63.0236C64.5335 62.9377 64.6478 62.8454 64.7544 62.7444C64.8649 62.6509 64.9714 62.5511 65.0661 62.4525C65.1667 62.354 65.2574 62.2542 65.3442 62.1556C65.435 62.0571 65.5218 61.9522 65.5967 61.8474V61.8411C65.6718 61.7463 65.7428 61.6579 65.8 61.5631C65.8256 61.5341 65.8453 61.5037 65.8611 61.4747C65.9223 61.39 65.9775 61.3003 66.0229 61.2157C66.2063 60.9226 66.3484 60.6244 66.4707 60.3288C66.5319 60.1848 66.5891 60.0345 66.6345 59.8879C66.6956 59.7123 66.7469 59.543 66.7883 59.38C66.8909 58.9694 66.954 58.5904 66.9935 58.2607C69.3706 58.2645 72.6434 57.5823 75.6262 54.5856C76.7823 53.4195 78.6978 50.9698 78.9463 46.452C79.4475 37.4745 71.7636 34.1443 71.6846 34.1089L71.6926 6.93547C71.6945 5.58417 72.2765 4.82463 73.2096 4.38675C73.9179 4.05726 74.7542 4.00016 75.644 4.00206C76.5455 4.00016 77.3741 4.05727 78.0882 4.38877C79.0193 4.82666 79.6053 5.58809 79.6033 6.94343L79.5895 50.112Z" fill="#84CEFF"/>
<path fill-rule="evenodd" clip-rule="evenodd" d="M35.237 53.9695L35.231 53.9683C33.0867 51.7726 31.7769 48.7556 31.8044 45.4418C31.8321 42.1293 33.1932 39.1326 35.3732 36.9735L35.3791 36.9672C35.5704 36.7802 35.7638 36.5983 35.969 36.4227C34.5486 36.8838 33.2761 37.6734 32.2404 38.6993C30.5103 40.4099 29.4332 42.7862 29.4115 45.4204C29.3897 48.0519 30.4294 50.446 32.124 52.1819C33.1419 53.2242 34.3966 54.0302 35.8051 54.5166C35.6099 54.3384 35.4185 54.1565 35.237 53.9695Z" fill="white"/>
<path d="M116.936 99.0001V80.5401H128.922V83.1141H118.262L119.744 81.5801V90.0561L118.262 88.7301H128.454V91.2261H118.262L119.744 89.9001V99.0001H116.936ZM131.117 99.0001V85.1681H133.639L133.743 88.8341L133.509 88.7561C133.699 87.5081 134.081 86.5981 134.653 86.0261C135.242 85.4541 136.031 85.1681 137.019 85.1681H138.345V87.6381H137.019C136.325 87.6381 135.745 87.7508 135.277 87.9761C134.809 88.2015 134.453 88.5481 134.211 89.0161C133.985 89.4841 133.873 90.0908 133.873 90.8361V99.0001H131.117ZM145.742 99.3121C144.425 99.3121 143.272 99.0175 142.284 98.4281C141.296 97.8388 140.533 96.9981 139.996 95.9061C139.459 94.8141 139.19 93.5401 139.19 92.0841C139.19 90.6108 139.459 89.3368 139.996 88.2621C140.533 87.1875 141.296 86.3555 142.284 85.7661C143.272 85.1595 144.425 84.8561 145.742 84.8561C147.059 84.8561 148.212 85.1595 149.2 85.7661C150.188 86.3555 150.951 87.1875 151.488 88.2621C152.025 89.3368 152.294 90.6108 152.294 92.0841C152.294 93.5401 152.025 94.8141 151.488 95.9061C150.951 96.9981 150.188 97.8388 149.2 98.4281C148.212 99.0175 147.059 99.3121 145.742 99.3121ZM145.742 96.9201C146.921 96.9201 147.831 96.4955 148.472 95.6461C149.113 94.7795 149.434 93.5921 149.434 92.0841C149.434 90.5761 149.113 89.3975 148.472 88.5481C147.831 87.6815 146.921 87.2481 145.742 87.2481C144.581 87.2481 143.671 87.6815 143.012 88.5481C142.371 89.3975 142.05 90.5761 142.05 92.0841C142.05 93.5921 142.371 94.7795 143.012 95.6461C143.671 96.4955 144.581 96.9201 145.742 96.9201ZM154.819 99.0001V85.1681H157.341L157.445 88.8601L157.107 88.6781C157.263 87.7768 157.558 87.0488 157.991 86.4941C158.425 85.9395 158.953 85.5321 159.577 85.2721C160.201 84.9948 160.877 84.8561 161.605 84.8561C162.645 84.8561 163.503 85.0901 164.179 85.5581C164.873 86.0088 165.393 86.6328 165.739 87.4301C166.103 88.2101 166.285 89.1028 166.285 90.1081V99.0001H163.529V90.9401C163.529 90.1255 163.443 89.4408 163.269 88.8861C163.096 88.3315 162.81 87.9068 162.411 87.6121C162.013 87.3175 161.493 87.1701 160.851 87.1701C159.881 87.1701 159.092 87.4908 158.485 88.1321C157.879 88.7735 157.575 89.7095 157.575 90.9401V99.0001H154.819ZM174.235 99.0001C172.917 99.0001 171.947 98.6968 171.323 98.0901C170.699 97.4835 170.387 96.5388 170.387 95.2561V81.9181H173.143V95.0481C173.143 95.6895 173.281 96.1315 173.559 96.3741C173.836 96.6168 174.261 96.7381 174.833 96.7381H176.809V99.0001H174.235ZM168.281 87.4301V85.1681H176.809V87.4301H168.281ZM179.182 99.0001V85.1681H181.938V99.0001H179.182ZM179.13 83.1661V80.4101H181.99V83.1661H179.13ZM191.015 99.3121C189.663 99.3121 188.493 99.0175 187.505 98.4281C186.534 97.8388 185.78 96.9981 185.243 95.9061C184.723 94.8141 184.463 93.5401 184.463 92.0841C184.463 90.6281 184.723 89.3628 185.243 88.2881C185.78 87.1961 186.534 86.3555 187.505 85.7661C188.475 85.1595 189.619 84.8561 190.937 84.8561C192.185 84.8561 193.285 85.1508 194.239 85.7401C195.192 86.3121 195.929 87.1441 196.449 88.2361C196.986 89.3281 197.255 90.6455 197.255 92.1881V92.8901H187.323C187.392 94.2421 187.747 95.2561 188.389 95.9321C189.047 96.6081 189.931 96.9461 191.041 96.9461C191.855 96.9461 192.531 96.7555 193.069 96.3741C193.606 95.9928 193.979 95.4815 194.187 94.8401L197.047 95.0221C196.683 96.3048 195.963 97.3448 194.889 98.1421C193.831 98.9221 192.54 99.3121 191.015 99.3121ZM187.323 90.8101H194.343C194.256 89.5795 193.901 88.6695 193.277 88.0801C192.67 87.4908 191.89 87.1961 190.937 87.1961C189.949 87.1961 189.134 87.5081 188.493 88.1321C187.869 88.7388 187.479 89.6315 187.323 90.8101ZM199.787 99.0001V85.1681H202.309L202.413 88.8341L202.179 88.7561C202.37 87.5081 202.751 86.5981 203.323 86.0261C203.913 85.4541 204.701 85.1681 205.689 85.1681H207.015V87.6381H205.689C204.996 87.6381 204.415 87.7508 203.947 87.9761C203.479 88.2015 203.124 88.5481 202.881 89.0161C202.656 89.4841 202.543 90.0908 202.543 90.8361V99.0001H199.787ZM214.392 99.0001L221.048 80.5401H224.61L231.266 99.0001H228.276L226.586 94.1901H219.046L217.382 99.0001H214.392ZM219.93 91.6421H225.728L222.816 83.2181L219.93 91.6421ZM233.215 99.0001V80.5401H236.023V99.0001H233.215ZM246.304 99.0001V80.5401H252.232C255.127 80.5401 257.354 81.3461 258.914 82.9581C260.474 84.5528 261.254 86.8321 261.254 89.7961C261.254 92.7428 260.483 95.0135 258.94 96.6081C257.415 98.2028 255.231 99.0001 252.388 99.0001H246.304ZM249.112 96.4261H252.232C254.278 96.4261 255.803 95.8801 256.808 94.7881C257.831 93.6788 258.342 92.0148 258.342 89.7961C258.342 87.5428 257.831 85.8701 256.808 84.7781C255.803 83.6688 254.278 83.1141 252.232 83.1141H249.112V96.4261ZM268.168 99.3121C266.729 99.3121 265.576 98.9828 264.71 98.3241C263.86 97.6655 263.436 96.7381 263.436 95.5421C263.436 94.3461 263.791 93.4188 264.502 92.7601C265.23 92.0841 266.348 91.5988 267.856 91.3041L272.614 90.3941C272.614 89.3195 272.362 88.5221 271.86 88.0021C271.357 87.4648 270.612 87.1961 269.624 87.1961C268.74 87.1961 268.046 87.3955 267.544 87.7941C267.041 88.1755 266.694 88.7475 266.504 89.5101L263.67 89.3281C263.93 87.9415 264.571 86.8495 265.594 86.0521C266.634 85.2548 267.977 84.8561 269.624 84.8561C271.496 84.8561 272.917 85.3588 273.888 86.3641C274.876 87.3521 275.37 88.7475 275.37 90.5501V95.9321C275.37 96.2615 275.422 96.4955 275.526 96.6341C275.647 96.7555 275.838 96.8161 276.098 96.8161H276.592V99.0001C276.505 99.0175 276.366 99.0348 276.176 99.0521C275.985 99.0695 275.786 99.0781 275.578 99.0781C274.988 99.0781 274.477 98.9828 274.044 98.7921C273.628 98.6015 273.316 98.2895 273.108 97.8561C272.9 97.4055 272.796 96.8075 272.796 96.0621L273.082 96.1921C272.943 96.7988 272.64 97.3361 272.172 97.8041C271.721 98.2721 271.14 98.6448 270.43 98.9221C269.736 99.1821 268.982 99.3121 268.168 99.3121ZM268.61 97.1281C269.442 97.1281 270.152 96.9721 270.742 96.6601C271.331 96.3308 271.79 95.8801 272.12 95.3081C272.449 94.7361 272.614 94.0861 272.614 93.3581V92.4741L268.558 93.2541C267.726 93.4101 267.136 93.6615 266.79 94.0081C266.46 94.3375 266.296 94.7621 266.296 95.2821C266.296 95.8715 266.495 96.3308 266.894 96.6601C267.31 96.9721 267.882 97.1281 268.61 97.1281ZM283.252 99.0001C281.934 99.0001 280.964 98.6968 280.34 98.0901C279.716 97.4835 279.404 96.5388 279.404 95.2561V81.9181H282.16V95.0481C282.16 95.6895 282.298 96.1315 282.576 96.3741C282.853 96.6168 283.278 96.7381 283.85 96.7381H285.826V99.0001H283.252ZM277.298 87.4301V85.1681H285.826V87.4301H277.298ZM291.997 99.3121C290.559 99.3121 289.406 98.9828 288.539 98.3241C287.69 97.6655 287.265 96.7381 287.265 95.5421C287.265 94.3461 287.621 93.4188 288.331 92.7601C289.059 92.0841 290.177 91.5988 291.685 91.3041L296.443 90.3941C296.443 89.3195 296.192 88.5221 295.689 88.0021C295.187 87.4648 294.441 87.1961 293.453 87.1961C292.569 87.1961 291.876 87.3955 291.373 87.7941C290.871 88.1755 290.524 88.7475 290.333 89.5101L287.499 89.3281C287.759 87.9415 288.401 86.8495 289.423 86.0521C290.463 85.2548 291.807 84.8561 293.453 84.8561C295.325 84.8561 296.747 85.3588 297.717 86.3641C298.705 87.3521 299.199 88.7475 299.199 90.5501V95.9321C299.199 96.2615 299.251 96.4955 299.355 96.6341C299.477 96.7555 299.667 96.8161 299.927 96.8161H300.421V99.0001C300.335 99.0175 300.196 99.0348 300.005 99.0521C299.815 99.0695 299.615 99.0781 299.407 99.0781C298.818 99.0781 298.307 98.9828 297.873 98.7921C297.457 98.6015 297.145 98.2895 296.937 97.8561C296.729 97.4055 296.625 96.8075 296.625 96.0621L296.911 96.1921C296.773 96.7988 296.469 97.3361 296.001 97.8041C295.551 98.2721 294.97 98.6448 294.259 98.9221C293.566 99.1821 292.812 99.3121 291.997 99.3121ZM292.439 97.1281C293.271 97.1281 293.982 96.9721 294.571 96.6601C295.161 96.3308 295.62 95.8801 295.949 95.3081C296.279 94.7361 296.443 94.0861 296.443 93.3581V92.4741L292.387 93.2541C291.555 93.4101 290.966 93.6615 290.619 94.0081C290.29 94.3375 290.125 94.7621 290.125 95.2821C290.125 95.8715 290.325 96.3308 290.723 96.6601C291.139 96.9721 291.711 97.1281 292.439 97.1281ZM308.913 99.0001V80.5401H311.721V97.9601L310.239 96.4261H320.717V99.0001H308.913ZM327.399 99.3121C325.96 99.3121 324.808 98.9828 323.941 98.3241C323.092 97.6655 322.667 96.7381 322.667 95.5421C322.667 94.3461 323.022 93.4188 323.733 92.7601C324.461 92.0841 325.579 91.5988 327.087 91.3041L331.845 90.3941C331.845 89.3195 331.594 88.5221 331.091 88.0021C330.588 87.4648 329.843 87.1961 328.855 87.1961C327.971 87.1961 327.278 87.3955 326.775 87.7941C326.272 88.1755 325.926 88.7475 325.735 89.5101L322.901 89.3281C323.161 87.9415 323.802 86.8495 324.825 86.0521C325.865 85.2548 327.208 84.8561 328.855 84.8561C330.727 84.8561 332.148 85.3588 333.119 86.3641C334.107 87.3521 334.601 88.7475 334.601 90.5501V95.9321C334.601 96.2615 334.653 96.4955 334.757 96.6341C334.878 96.7555 335.069 96.8161 335.329 96.8161H335.823V99.0001C335.736 99.0175 335.598 99.0348 335.407 99.0521C335.216 99.0695 335.017 99.0781 334.809 99.0781C334.22 99.0781 333.708 98.9828 333.275 98.7921C332.859 98.6015 332.547 98.2895 332.339 97.8561C332.131 97.4055 332.027 96.8075 332.027 96.0621L332.313 96.1921C332.174 96.7988 331.871 97.3361 331.403 97.8041C330.952 98.2721 330.372 98.6448 329.661 98.9221C328.968 99.1821 328.214 99.3121 327.399 99.3121ZM327.841 97.1281C328.673 97.1281 329.384 96.9721 329.973 96.6601C330.562 96.3308 331.022 95.8801 331.351 95.3081C331.68 94.7361 331.845 94.0861 331.845 93.3581V92.4741L327.789 93.2541C326.957 93.4101 326.368 93.6615 326.021 94.0081C325.692 94.3375 325.527 94.7621 325.527 95.2821C325.527 95.8715 325.726 96.3308 326.125 96.6601C326.541 96.9721 327.113 97.1281 327.841 97.1281ZM344.653 99.3121C343.7 99.3121 342.85 99.1041 342.105 98.6881C341.377 98.2548 340.814 97.6655 340.415 96.9201L340.337 99.0001H337.763V80.5401H340.519V87.1181C340.883 86.5115 341.42 85.9828 342.131 85.5321C342.859 85.0815 343.7 84.8561 344.653 84.8561C345.849 84.8561 346.889 85.1508 347.773 85.7401C348.657 86.3295 349.333 87.1701 349.801 88.2621C350.286 89.3368 350.529 90.6108 350.529 92.0841C350.529 93.5575 350.286 94.8401 349.801 95.9321C349.333 97.0068 348.657 97.8388 347.773 98.4281C346.889 99.0175 345.849 99.3121 344.653 99.3121ZM344.211 96.9201C345.268 96.9201 346.109 96.4955 346.733 95.6461C347.357 94.7795 347.669 93.5921 347.669 92.0841C347.669 90.5761 347.357 89.3975 346.733 88.5481C346.109 87.6815 345.277 87.2481 344.237 87.2481C343.457 87.2481 342.79 87.4388 342.235 87.8201C341.68 88.2015 341.256 88.7561 340.961 89.4841C340.666 90.1948 340.519 91.0615 340.519 92.0841C340.519 93.0721 340.666 93.9301 340.961 94.6581C341.256 95.3861 341.68 95.9495 342.235 96.3481C342.79 96.7295 343.448 96.9201 344.211 96.9201Z" fill="#14194D"/>
</svg>